<svg width="141" height="141" viewBox="0 0 141 141" fill="none" xmlns="http://www.w3.org/2000/svg">
<rect y="6.10352e-05" width="140.978" height="140.978" rx="50" fill="#D9D9D9"/>
<path d="M72.4652 21.3918L97.1358 38.1957L122.363 54.3046L112.383 80.799L103.303 107.559L72.4652 107.129L41.6269 107.559L32.5473 80.799L22.5678 54.3046L47.7946 38.1957L72.4652 21.3918Z" fill="#B093B5"/>
<path d="M97.2221 25.9727L111.262 49.2669L126.006 72.1077L108.29 93.0232L91.2115 114.472L66.2225 104.104L40.9229 94.5191L43.1952 67.196L44.6377 39.8237L71.031 33.3048L97.2221 25.9727Z" fill="#4D2953"/>
<path d="M94.0436 59.6697L93.2526 69.6049L92.7643 79.5541L83.1439 82.0493L73.5985 84.839L68.4439 76.4459L63.0328 68.2209L69.4674 60.5384L75.6686 52.6654L84.8 56.3104L94.0436 59.6697Z" fill="#D9D9D9"/>
</svg>
